<?xml version="1.0" standalone="no"?>
<!DOCTYPE svg PUBLIC "-//W3C//DTD SVG 20010904//EN"
 "http://www.w3.org/TR/2001/REC-SVG-20010904/DTD/svg10.dtd">
<svg version="1.0" xmlns="http://www.w3.org/2000/svg"
 width="700.000000pt" height="700.000000pt" viewBox="0 0 700.000000 700.000000"
 preserveAspectRatio="xMidYMid meet">
<metadata>
Created by potrace 1.11, written by Peter Selinger 2001-2013
</metadata>
<g transform="translate(0.000000,700.000000) scale(0.100000,-0.100000)"
fill="#000000" stroke="none">
<path d="M3251 6989 c-826 -59 -1587 -399 -2180 -974 -512 -496 -856 -1120
-996 -1810 -53 -262 -69 -423 -69 -705 0 -551 109 -1032 344 -1518 180 -372
382 -655 679 -953 285 -284 560 -483 913 -660 974 -488 2142 -488 3116 0 702
352 1254 913 1596 1621 231 479 340 964 340 1510 0 579 -120 1077 -382 1595
-245 483 -618 917 -1072 1247 -265 192 -597 363 -925 475 -421 143 -909 205
-1364 172z m-276 -1414 c205 -52 368 -219 415 -424 17 -75 8 -230 -19 -306
-47 -132 -160 -257 -287 -317 -96 -45 -178 -58 -376 -58 l-178 0 0 -797 c-1
-439 -5 -818 -9 -843 -13 -63 -56 -100 -117 -100 -37 0 -51 6 -74 28 -16 17
-210 393 -475 923 -425 849 -448 897 -441 934 11 56 52 91 118 98 29 4 209 7
399 7 l346 0 5 203 c5 185 7 209 32 280 34 101 77 168 155 240 71 65 154 111
239 131 77 19 195 19 267 1z m1690 -1321 c37 -24 925 -1798 925 -1848 0 -45
-38 -98 -80 -113 -25 -8 -147 -12 -411 -12 l-376 -1 -6 -202 c-6 -220 -13
-262 -69 -373 -37 -73 -141 -179 -219 -223 -67 -38 -191 -72 -264 -72 -205 0
-404 119 -497 296 -175 333 11 732 377 809 46 10 130 15 248 15 l177 0 0 823
c0 763 1 825 18 857 32 65 113 86 177 44z m-984 -226 c147 -54 252 -146 318
-281 235 -479 -272 -982 -751 -745 -85 42 -204 161 -246 246 -148 299 -9 656
301 774 81 31 125 37 222 33 63 -2 110 -11 156 -27z"/>
<path d="M2782 5340 c-66 -14 -142 -60 -184 -113 -58 -74 -68 -122 -68 -329
l0 -178 193 0 c190 0 193 0 252 28 68 33 127 93 158 161 32 70 30 179 -4 251
-63 133 -208 208 -347 180z"/>
<path d="M1821 4288 c51 -101 176 -352 278 -558 l186 -375 3 185 c2 102 0 353
-3 558 l-7 372 -274 0 -274 0 91 -182z"/>
<path d="M4720 3077 l0 -547 275 0 275 0 -271 543 c-149 298 -273 544 -275
546 -2 2 -4 -242 -4 -542z"/>
<path d="M4042 2263 c-61 -21 -145 -102 -172 -165 -69 -160 -9 -330 144 -408
59 -30 77 -34 140 -34 134 0 250 79 297 204 16 43 19 77 19 235 l0 185 -192
-1 c-145 0 -204 -4 -236 -16z"/>
<path d="M3365 3781 c-163 -78 -224 -264 -141 -428 74 -146 264 -207 414 -133
112 57 172 153 172 280 0 180 -129 310 -310 310 -62 0 -85 -5 -135 -29z"/>
</g>
</svg>
